<svg width="24" height="24" viewBox="0 0 24 24" fill="none" xmlns="http://www.w3.org/2000/svg">
<path d="M11.5 4L14.1792 9.19532L20 10.1115L15.835 14.2385L16.7533 20L11.5 17.3553L6.24671 20L7.165 14.2385L3 10.1115L8.82082 9.19532L11.5 4Z" fill="#F0D800"/>
<path fill-rule="evenodd" clip-rule="evenodd" d="M12 3C12.3035 3 12.5814 3.17809 12.7193 3.46102L15.1148 8.37386L20.3193 9.24019C20.619 9.29008 20.8667 9.51163 20.9605 9.81373C21.0542 10.1158 20.9783 10.4474 20.7638 10.6722L17.0398 14.5748L17.8609 20.0231C17.9082 20.3368 17.7834 20.6519 17.5379 20.8386C17.2923 21.0253 16.9675 21.0521 16.697 20.9081L12 18.4072L7.30297 20.9081C7.03248 21.0521 6.70766 21.0253 6.46214 20.8386C6.21661 20.6519 6.09182 20.3368 6.13911 20.0231L6.96016 14.5748L3.23619 10.6722C3.02172 10.4474 2.94576 10.1158 3.03955 9.81373C3.13333 9.51163 3.38102 9.29008 3.68074 9.24019L8.88521 8.37386L11.2807 3.46102C11.4186 3.17809 11.6965 3 12 3ZM12 5.70464L10.1371 9.52526C10.0197 9.76591 9.79955 9.93335 9.54462 9.97579L5.49721 10.6495L8.39327 13.6845C8.57568 13.8757 8.65979 14.1466 8.61957 14.4135L7.98106 18.6505L11.6338 16.7056C11.8639 16.5831 12.1361 16.5831 12.3662 16.7056L16.0189 18.6505L15.3804 14.4135C15.3402 14.1466 15.4243 13.8757 15.6067 13.6845L18.5028 10.6495L14.4554 9.97579C14.2004 9.93335 13.9803 9.76591 13.8629 9.52526L12 5.70464Z" fill="#F0D800"/>
</svg>
